<svg width="209" height="95" viewBox="0 0 209 95" fill="none" xmlns="http://www.w3.org/2000/svg">
<path d="M177.219 59.3933L172.365 53.2446H170.848V63.1385H172.717V56.4308L177.929 63.1385H179.088V53.2502H177.219V59.3933ZM159.075 54.7538C161.409 54.7538 162.344 56.6208 162.316 58.2922C162.288 59.9635 161.409 61.646 159.075 61.646C156.74 61.646 155.861 59.9076 155.822 58.2922C155.783 56.6767 156.751 54.7538 159.075 54.7538ZM159.075 53.0769C155.648 53.0769 153.98 55.6929 153.98 58.2922C153.98 60.8914 155.592 63.3956 159.075 63.3956C162.557 63.3956 164.113 60.8355 164.158 58.2754C164.203 55.7153 162.489 53.0769 159.075 53.0769ZM147.189 63.1385V53.2502H145.331V63.1385H147.189ZM134 63.1385H135.87V54.9439H139.01V53.267H130.854V54.9439H134V63.1385ZM123.414 59.5387H119.73L121.572 55.3128L123.414 59.5387ZM124.998 63.1385H127.036L122.602 53.2502H120.564L116.108 63.1385H118.123L118.969 61.2771H124.153L124.998 63.1385ZM103.724 54.9998H105.762C107.918 54.9998 108.819 56.5426 108.864 58.0853C108.908 59.6281 108.013 61.3442 105.762 61.3442H103.724V54.9998ZM105.762 53.2334H101.888V63.1385H105.779C109.25 63.1385 110.778 60.6119 110.734 58.1077C110.689 55.6035 109.166 53.2502 105.762 53.2502V53.2334ZM93.239 59.3822L88.3853 53.2334H86.8681V63.1385H88.7379V56.4308L93.9443 63.1385H95.1088V53.2502H93.239V59.3822ZM77.8661 53.267V58.9462C77.8661 60.6231 76.9928 61.674 75.4477 61.674C73.9025 61.674 72.8837 60.7293 72.8837 58.9462V53.2782H71.0306V58.9462C71.0306 61.9255 73.0572 63.3676 75.4309 63.3676C77.9221 63.3676 79.7247 61.8696 79.7247 58.9462V53.2782L77.8661 53.267ZM59.3918 54.7483C61.7263 54.7483 62.6612 56.6152 62.6332 58.2866C62.6052 59.9579 61.7263 61.6404 59.3918 61.6404C57.0574 61.6404 56.1784 59.902 56.1337 58.2866C56.0889 56.6711 57.063 54.7538 59.3974 54.7538L59.3918 54.7483ZM59.3918 53.0713C55.9657 53.0713 54.2974 55.6873 54.2974 58.2866C54.2974 60.8858 55.9097 63.39 59.3918 63.39C62.874 63.39 64.4303 60.8299 64.4751 58.2698C64.5199 55.7097 62.8068 53.0769 59.3974 53.0769L59.3918 53.0713ZM42.7258 63.1385V59.4828H47.6915V57.7723H42.7258V55.0725H47.977V53.2782H40.8672V63.1385H42.7258Z" fill="#F79422"/>
<path d="M179.273 42.8756H166.862V37.8952H178.831V34.0159H166.862V28.9069H179.273V24.8711H162.725V46.9729H179.273V42.8756ZM156.88 28.5324C155.201 25.1226 151.64 24.15 148.197 24.15C144.122 24.15 139.637 26.0393 139.637 30.5782C139.637 35.5307 143.808 36.7269 148.32 37.2859C151.259 37.5989 153.437 38.4542 153.437 40.5335C153.437 42.9315 150.974 43.8427 148.354 43.8427C145.734 43.8427 143.114 42.7694 142.134 40.3435L138.658 42.1434C140.304 46.1792 143.774 47.5654 148.292 47.5654C153.219 47.5654 157.574 45.4525 157.574 40.5335C157.574 35.268 153.28 34.0718 148.667 33.5016C146.019 33.1886 143.746 32.652 143.746 30.7068C143.746 29.069 145.23 27.7722 148.32 27.7722C150.722 27.7722 152.799 28.9739 153.566 30.2316L156.88 28.5324ZM127.019 24.8711C123.542 24.8431 120.071 24.8711 116.595 24.8711V46.9729H120.766V40.4776H127.019C137.857 40.4776 137.829 24.8711 127.03 24.8711H127.019ZM120.766 28.8454H127.019C132.32 28.8454 132.354 36.671 127.019 36.671H120.777L120.766 28.8454ZM110.689 46.9729V24.8711H106.552V46.9729H110.689ZM86.0564 24.8711V46.9729H101.592V43.1272H90.2551V24.8711H86.0564ZM79.2433 41.3385C77.7442 42.7617 75.7584 43.5612 73.6898 43.5744C68.2259 43.5744 66.1098 39.7622 66.0762 36.1009C66.0426 32.4396 68.3491 28.4429 73.6898 28.4429C75.6719 28.4139 77.5867 29.1602 79.025 30.5223L81.8241 27.8448C80.7614 26.7778 79.4972 25.932 78.1047 25.3563C76.7123 24.7806 75.2193 24.4865 73.7122 24.491C65.7235 24.491 61.9558 30.3546 61.995 36.1232C62.0342 41.8918 65.4996 47.4872 73.6898 47.4872C75.2376 47.5242 76.7773 47.2532 78.219 46.6899C79.6608 46.1265 80.9757 45.2821 82.0872 44.206L79.2433 41.3385ZM57.4101 42.8812H44.9931V37.8952H56.9622V34.0159H44.9931V28.9069H57.4045V24.8711H40.8672V46.9729H57.4157L57.4101 42.8812Z" fill="#3D3C3B"/>
<path d="M33.9594 22.624C38.9978 14.7425 49.1587 12.0035 57.612 15.7766L57.0522 15.3909C52.9075 12.7372 47.8768 11.8362 43.0668 12.8861C38.2568 13.9359 34.0615 16.8506 31.4038 20.989C28.7461 25.1274 27.8437 30.1504 28.8951 34.9531C29.9466 39.7558 32.8657 43.9447 37.0104 46.5984L37.5982 46.9506C30.6172 40.8577 28.8929 30.5111 33.9594 22.624Z" fill="#F79422"/>
<path d="M180.824 27.0343C180.824 26.3553 181.094 25.7042 181.575 25.224C182.056 24.7439 182.708 24.4742 183.388 24.4742C184.068 24.4742 184.72 24.7439 185.201 25.224C185.682 25.7042 185.952 26.3553 185.952 27.0343C185.952 27.7133 185.682 28.3645 185.201 28.8446C184.72 29.3247 184.068 29.5944 183.388 29.5944C182.708 29.5944 182.056 29.3247 181.575 28.8446C181.094 28.3645 180.824 27.7133 180.824 27.0343ZM185.656 27.0343C185.656 26.4339 185.417 25.8581 184.991 25.4335C184.566 25.009 183.99 24.7705 183.388 24.7705C182.787 24.7705 182.21 25.009 181.785 25.4335C181.36 25.8581 181.121 26.4339 181.121 27.0343C181.115 27.334 181.169 27.6319 181.281 27.9102C181.392 28.1886 181.559 28.4416 181.771 28.6544C181.982 28.8671 182.234 29.0353 182.512 29.1487C182.79 29.2622 183.088 29.3187 183.388 29.3149C183.69 29.3164 183.99 29.2579 184.269 29.1429C184.548 29.0278 184.802 28.8585 185.015 28.6447C185.228 28.4309 185.396 28.177 185.51 27.8976C185.624 27.6183 185.681 27.3191 185.678 27.0175L185.656 27.0343ZM182.33 25.6536H183.623C184.245 25.6536 184.698 25.9331 184.698 26.5368C184.707 26.7237 184.651 26.9078 184.54 27.0584C184.429 27.209 184.269 27.3169 184.088 27.3641L184.743 28.2976H183.965L183.405 27.4591H182.991V28.2976H182.347L182.33 25.6536ZM183.534 26.9449C183.83 26.9449 183.993 26.7995 183.993 26.5815C183.993 26.3635 183.814 26.2126 183.534 26.2126H182.974V26.9449H183.534Z" fill="#3D3C3B"/>
</svg>
