<svg width="147" height="35" viewBox="0 0 147 35" fill="none" xmlns="http://www.w3.org/2000/svg">
<path d="M9.40258 21.7614H4.16406C4.85767 24.1504 6.14477 26.2919 8.02913 28.1839C11.0332 31.2009 14.6455 32.7069 18.8697 32.7069C19.7141 32.7069 20.5322 32.6438 21.3269 32.5234C24.5087 32.0412 27.2944 30.5968 29.6812 28.1839C31.5777 26.2925 32.8739 24.1504 33.5728 21.7614H31.4469H28.3384H9.40258Z" fill="#F89522"/>
<path d="M33.5734 12.8969C32.8751 10.5013 31.5786 8.35004 29.6811 6.44448C27.3006 4.05452 24.5227 2.62016 21.3513 2.13764C20.5491 2.01544 19.7228 1.95136 18.8697 1.95136C14.6454 1.95136 11.0328 3.44949 8.02909 6.44448C6.14411 8.35004 4.85638 10.5013 4.16309 12.8969" fill="#F89522"/>
<path d="M2.66869 17.3297C2.66869 9.21737 8.73659 2.4769 16.6303 1.29135C16.4345 1.28412 16.2377 1.27596 16.04 1.27596C7.18168 1.27596 0 8.46375 0 17.3297C0 26.1959 7.18137 33.3831 16.04 33.3831C16.2383 33.3831 16.4351 33.3758 16.6316 33.3683C8.73659 32.1827 2.66869 25.4423 2.66869 17.3297Z" fill="#F89522"/>
<path d="M90.6636 0H87.4734V4.05616H90.6636V0Z" fill="#1F1F1F"/>
<path d="M60.8383 16.692V18.2583H46.1699C46.3082 20.4642 46.9702 22.1439 48.155 23.2983C49.3401 24.4537 50.9901 25.0305 53.105 25.0305C54.3302 25.0305 55.5178 24.88 56.6685 24.5788C57.8186 24.2775 58.9593 23.8242 60.0927 23.2204V26.2503C58.9483 26.7382 57.7751 27.1091 56.5728 27.3652C55.3704 27.6202 54.1512 27.7481 52.9145 27.7481C49.8169 27.7481 47.3634 26.8431 45.5545 25.0321C43.7455 23.2214 42.8411 20.7736 42.8411 17.6863C42.8411 14.4946 43.6992 11.9611 45.4156 10.0873C47.1319 8.2128 49.4471 7.27542 52.3595 7.27542C54.9722 7.27542 57.038 8.11982 58.5579 9.80831C60.0783 11.4952 60.8383 13.7903 60.8383 16.692ZM57.6481 15.7521C57.6246 13.9999 57.1362 12.6013 56.1829 11.5571C55.229 10.5123 53.9663 9.9902 52.3945 9.9902C50.6144 9.9902 49.1896 10.495 48.1206 11.505C47.0512 12.5143 46.4358 13.9364 46.2741 15.7697L57.6481 15.7521Z" fill="#1F1F1F"/>
<path d="M77.3862 8.49254V11.4863C76.4842 10.9874 75.58 10.6136 74.6727 10.3639C73.7651 10.1141 72.8491 9.98972 71.9243 9.98972C69.855 9.98972 68.2485 10.6482 67.1047 11.9653C65.9602 13.2825 65.388 15.1312 65.388 17.5099C65.388 19.8888 65.9602 21.7379 67.1047 23.0547C68.2485 24.3725 69.855 25.0303 71.9243 25.0303C72.8491 25.0303 73.7651 24.9059 74.6727 24.6571C75.5791 24.4074 76.4842 24.0333 77.3862 23.5338V26.4933C76.4958 26.9111 75.5738 27.2246 74.6205 27.4332C73.6663 27.6424 72.6529 27.7467 71.5773 27.7467C68.6527 27.7467 66.3297 26.8238 64.6078 24.9785C62.8852 23.1336 62.0242 20.644 62.0242 17.5102C62.0242 14.3308 62.8936 11.8293 64.6334 10.0067C66.3729 8.185 68.7575 7.27368 71.7851 7.27368C72.7681 7.27368 73.7273 7.37578 74.664 7.57871C75.6001 7.78133 76.5074 8.08636 77.3862 8.49254Z" fill="#1F1F1F"/>
<path d="M83.4621 0.153176H80.2712V27.2416H83.4621V0.153176Z" fill="#1F1F1F"/>
<path d="M87.4734 7.74319H90.6636V27.2417H87.4734V7.74319Z" fill="#1F1F1F"/>
<path d="M97.7619 24.317V34.6585H94.5544V7.74311H97.7619V10.7032C98.433 9.54311 99.2799 8.68081 100.302 8.11787C101.326 7.55588 102.548 7.27347 103.97 7.27347C106.328 7.27347 108.244 8.21305 109.717 10.0941C111.191 11.9745 111.927 14.4465 111.927 17.51C111.927 20.5747 111.191 23.0466 109.717 24.9261C108.244 26.8059 106.328 27.7468 103.97 27.7468C102.548 27.7468 101.326 27.4653 100.302 26.9021C99.2789 26.3401 98.432 25.4781 97.7619 24.317ZM108.616 17.51C108.616 15.1539 108.133 13.3055 107.168 11.9654C106.203 10.6253 104.877 9.95527 103.188 9.95527C101.5 9.95527 100.174 10.6253 99.2092 11.9654C98.244 13.3065 97.7609 15.1539 97.7609 17.51C97.7609 19.8666 98.244 21.7153 99.2092 23.0548C100.174 24.3962 101.5 25.0653 103.188 25.0653C104.877 25.0653 106.203 24.3952 107.168 23.0548C108.133 21.7153 108.616 19.8666 108.616 17.51Z" fill="#1F1F1F"/>
<path d="M126.933 8.31838V11.3479C126.03 10.8836 125.095 10.5356 124.124 10.3031C123.152 10.0713 122.147 9.95567 121.107 9.95567C119.523 9.95567 118.336 10.1988 117.543 10.6867C116.751 11.1742 116.356 11.9052 116.356 12.88C116.356 13.6223 116.638 14.206 117.205 14.6297C117.772 15.0532 118.909 15.4562 120.621 15.8398L121.713 16.0832C123.978 16.5711 125.588 17.2578 126.542 18.1462C127.496 19.0339 127.973 20.2732 127.973 21.8624C127.973 23.6734 127.259 25.1062 125.83 26.1627C124.403 27.2179 122.441 27.7469 119.945 27.7469C118.905 27.7469 117.821 27.6451 116.693 27.4425C115.566 27.2395 114.379 26.9345 113.13 26.5283V23.2201C114.309 23.8362 115.47 24.297 116.615 24.6049C117.759 24.9124 118.892 25.0657 120.013 25.0657C121.516 25.0657 122.671 24.8081 123.481 24.2914C124.29 23.7743 124.694 23.0464 124.694 22.1065C124.694 21.2361 124.403 20.5685 123.819 20.1039C123.235 19.6396 121.955 19.1929 119.978 18.7628L118.869 18.5024C116.893 18.0846 115.465 17.4435 114.587 16.579C113.708 15.7144 113.269 14.528 113.269 13.0185C113.269 11.1843 113.916 9.76876 115.211 8.77106C116.505 7.77273 118.343 7.27325 120.724 7.27325C121.903 7.27325 123.013 7.35995 124.053 7.53398C125.095 7.70927 126.054 7.97001 126.933 8.31838Z" fill="#1F1F1F"/>
<path d="M147 16.692V18.2583H132.332C132.47 20.4642 133.132 22.1439 134.317 23.2983C135.501 24.4537 137.152 25.0305 139.267 25.0305C140.493 25.0305 141.68 24.88 142.83 24.5788C143.981 24.2775 145.121 23.8242 146.255 23.2204V26.2503C145.11 26.7382 143.937 27.1091 142.734 27.3652C141.533 27.6202 140.313 27.7481 139.077 27.7481C135.979 27.7481 133.526 26.8431 131.717 25.0321C129.908 23.2214 129.003 20.7736 129.003 17.6863C129.003 14.4946 129.862 11.9611 131.578 10.0873C133.294 8.21249 135.61 7.27542 138.522 7.27542C141.134 7.27542 143.201 8.11982 144.721 9.80831C146.24 11.4952 147 13.7903 147 16.692ZM143.81 15.7521C143.786 13.9999 143.298 12.6013 142.344 11.5571C141.39 10.5123 140.127 9.9902 138.556 9.9902C136.776 9.9902 135.351 10.495 134.283 11.505C133.213 12.5143 132.597 13.9364 132.436 15.7697L143.81 15.7521Z" fill="#1F1F1F"/>
<path d="M6.91979 18.1891H8.44779H29.3174H32.059H34.1417C34.156 17.9154 34.1642 17.64 34.1642 17.3623C34.1642 17.0623 34.1532 16.7651 34.1363 16.4685H32.0586H29.3171H8.44748H6.81154H3.57814C3.56124 16.7645 3.55029 17.0623 3.55029 17.3623C3.55029 17.64 3.55843 17.9154 3.57282 18.1891H6.91979Z" fill="#F89522"/>
<path d="M9.34123 12.8969H4.16279C3.99259 13.457 3.88278 14.0316 3.77734 14.6174H6.44447H8.71551H28.9509H31.8167H33.865C33.7593 14.0322 33.6232 13.4576 33.4533 12.8969" fill="#F89522"/>
<path d="M31.8978 20.041H29.032H8.79693H6.63444H3.7771C3.87972 20.6263 3.99641 21.2005 4.16379 21.7613H9.42202H28.4069H31.5236H33.5535C33.7205 21.2012 33.8554 20.6269 33.9583 20.041H31.8978Z" fill="#F89522"/>
</svg>
